%TF.GenerationSoftware,KiCad,Pcbnew,5.1.6-c6e7f7d~86~ubuntu16.04.1*%
%TF.CreationDate,2020-05-16T14:02:59+09:00*%
%TF.ProjectId,output.soil_monitor,6f757470-7574-42e7-936f-696c5f6d6f6e,rev?*%
%TF.SameCoordinates,Original*%
%TF.FileFunction,Copper,L1,Top*%
%TF.FilePolarity,Positive*%
%FSLAX46Y46*%
G04 Gerber Fmt 4.6, Leading zero omitted, Abs format (unit mm)*
G04 Created by KiCad (PCBNEW 5.1.6-c6e7f7d~86~ubuntu16.04.1) date 2020-05-16 14:02:59*
%MOMM*%
%LPD*%
G01*
G04 APERTURE LIST*
%TA.AperFunction,NonConductor*%
%ADD10C,0.100000*%
%TD*%
%TA.AperFunction,EtchedComponent*%
%ADD11C,0.100000*%
%TD*%
%TA.AperFunction,ComponentPad*%
%ADD12O,1.600000X1.600000*%
%TD*%
%TA.AperFunction,ComponentPad*%
%ADD13R,1.600000X1.600000*%
%TD*%
%TA.AperFunction,Conductor*%
%ADD14C,0.500000*%
%TD*%
%TA.AperFunction,ComponentPad*%
%ADD15O,1.700000X1.700000*%
%TD*%
%TA.AperFunction,ComponentPad*%
%ADD16R,1.700000X1.700000*%
%TD*%
%TA.AperFunction,ViaPad*%
%ADD17C,0.800000*%
%TD*%
%TA.AperFunction,Conductor*%
%ADD18C,2.000000*%
%TD*%
%TA.AperFunction,Conductor*%
%ADD19C,1.000000*%
%TD*%
%TA.AperFunction,Conductor*%
%ADD20C,4.000000*%
%TD*%
%TA.AperFunction,Conductor*%
%ADD21C,0.500000*%
%TD*%
G04 APERTURE END LIST*
D10*
G36*
X179000000Y-99000000D02*
G01*
X160000000Y-99000000D01*
X160000000Y-98000000D01*
X179000000Y-98000000D01*
X179000000Y-99000000D01*
G37*
X179000000Y-99000000D02*
X160000000Y-99000000D01*
X160000000Y-98000000D01*
X179000000Y-98000000D01*
X179000000Y-99000000D01*
G36*
X179000000Y-95000000D02*
G01*
X160000000Y-95000000D01*
X160000000Y-94000000D01*
X179000000Y-94000000D01*
X179000000Y-95000000D01*
G37*
X179000000Y-95000000D02*
X160000000Y-95000000D01*
X160000000Y-94000000D01*
X179000000Y-94000000D01*
X179000000Y-95000000D01*
G36*
X179000000Y-91000000D02*
G01*
X160000000Y-91000000D01*
X160000000Y-90000000D01*
X179000000Y-90000000D01*
X179000000Y-91000000D01*
G37*
X179000000Y-91000000D02*
X160000000Y-91000000D01*
X160000000Y-90000000D01*
X179000000Y-90000000D01*
X179000000Y-91000000D01*
G36*
X179000000Y-87000000D02*
G01*
X160000000Y-87000000D01*
X160000000Y-86000000D01*
X179000000Y-86000000D01*
X179000000Y-87000000D01*
G37*
X179000000Y-87000000D02*
X160000000Y-87000000D01*
X160000000Y-86000000D01*
X179000000Y-86000000D01*
X179000000Y-87000000D01*
G36*
X179000000Y-83000000D02*
G01*
X160000000Y-83000000D01*
X160000000Y-82000000D01*
X179000000Y-82000000D01*
X179000000Y-83000000D01*
G37*
X179000000Y-83000000D02*
X160000000Y-83000000D01*
X160000000Y-82000000D01*
X179000000Y-82000000D01*
X179000000Y-83000000D01*
G36*
X179000000Y-79000000D02*
G01*
X160000000Y-79000000D01*
X160000000Y-78000000D01*
X179000000Y-78000000D01*
X179000000Y-79000000D01*
G37*
X179000000Y-79000000D02*
X160000000Y-79000000D01*
X160000000Y-78000000D01*
X179000000Y-78000000D01*
X179000000Y-79000000D01*
G36*
X179000000Y-75000000D02*
G01*
X160000000Y-75000000D01*
X160000000Y-74000000D01*
X179000000Y-74000000D01*
X179000000Y-75000000D01*
G37*
X179000000Y-75000000D02*
X160000000Y-75000000D01*
X160000000Y-74000000D01*
X179000000Y-74000000D01*
X179000000Y-75000000D01*
G36*
X179000000Y-71000000D02*
G01*
X160000000Y-71000000D01*
X160000000Y-70000000D01*
X179000000Y-70000000D01*
X179000000Y-71000000D01*
G37*
X179000000Y-71000000D02*
X160000000Y-71000000D01*
X160000000Y-70000000D01*
X179000000Y-70000000D01*
X179000000Y-71000000D01*
G36*
X179000000Y-67000000D02*
G01*
X160000000Y-67000000D01*
X160000000Y-66000000D01*
X179000000Y-66000000D01*
X179000000Y-67000000D01*
G37*
X179000000Y-67000000D02*
X160000000Y-67000000D01*
X160000000Y-66000000D01*
X179000000Y-66000000D01*
X179000000Y-67000000D01*
G36*
X179000000Y-63000000D02*
G01*
X160000000Y-63000000D01*
X160000000Y-62000000D01*
X179000000Y-62000000D01*
X179000000Y-63000000D01*
G37*
X179000000Y-63000000D02*
X160000000Y-63000000D01*
X160000000Y-62000000D01*
X179000000Y-62000000D01*
X179000000Y-63000000D01*
G36*
X179000000Y-59000000D02*
G01*
X160000000Y-59000000D01*
X160000000Y-58000000D01*
X179000000Y-58000000D01*
X179000000Y-59000000D01*
G37*
X179000000Y-59000000D02*
X160000000Y-59000000D01*
X160000000Y-58000000D01*
X179000000Y-58000000D01*
X179000000Y-59000000D01*
G36*
X179000000Y-55000000D02*
G01*
X160000000Y-55000000D01*
X160000000Y-54000000D01*
X179000000Y-54000000D01*
X179000000Y-55000000D01*
G37*
X179000000Y-55000000D02*
X160000000Y-55000000D01*
X160000000Y-54000000D01*
X179000000Y-54000000D01*
X179000000Y-55000000D01*
G36*
X177000000Y-101000000D02*
G01*
X158000000Y-101000000D01*
X158000000Y-100000000D01*
X177000000Y-100000000D01*
X177000000Y-101000000D01*
G37*
X177000000Y-101000000D02*
X158000000Y-101000000D01*
X158000000Y-100000000D01*
X177000000Y-100000000D01*
X177000000Y-101000000D01*
G36*
X177000000Y-97000000D02*
G01*
X158000000Y-97000000D01*
X158000000Y-96000000D01*
X177000000Y-96000000D01*
X177000000Y-97000000D01*
G37*
X177000000Y-97000000D02*
X158000000Y-97000000D01*
X158000000Y-96000000D01*
X177000000Y-96000000D01*
X177000000Y-97000000D01*
G36*
X177000000Y-93000000D02*
G01*
X158000000Y-93000000D01*
X158000000Y-92000000D01*
X177000000Y-92000000D01*
X177000000Y-93000000D01*
G37*
X177000000Y-93000000D02*
X158000000Y-93000000D01*
X158000000Y-92000000D01*
X177000000Y-92000000D01*
X177000000Y-93000000D01*
G36*
X177000000Y-89000000D02*
G01*
X158000000Y-89000000D01*
X158000000Y-88000000D01*
X177000000Y-88000000D01*
X177000000Y-89000000D01*
G37*
X177000000Y-89000000D02*
X158000000Y-89000000D01*
X158000000Y-88000000D01*
X177000000Y-88000000D01*
X177000000Y-89000000D01*
G36*
X177000000Y-85000000D02*
G01*
X158000000Y-85000000D01*
X158000000Y-84000000D01*
X177000000Y-84000000D01*
X177000000Y-85000000D01*
G37*
X177000000Y-85000000D02*
X158000000Y-85000000D01*
X158000000Y-84000000D01*
X177000000Y-84000000D01*
X177000000Y-85000000D01*
G36*
X177000000Y-81000000D02*
G01*
X158000000Y-81000000D01*
X158000000Y-80000000D01*
X177000000Y-80000000D01*
X177000000Y-81000000D01*
G37*
X177000000Y-81000000D02*
X158000000Y-81000000D01*
X158000000Y-80000000D01*
X177000000Y-80000000D01*
X177000000Y-81000000D01*
G36*
X177000000Y-77000000D02*
G01*
X158000000Y-77000000D01*
X158000000Y-76000000D01*
X177000000Y-76000000D01*
X177000000Y-77000000D01*
G37*
X177000000Y-77000000D02*
X158000000Y-77000000D01*
X158000000Y-76000000D01*
X177000000Y-76000000D01*
X177000000Y-77000000D01*
G36*
X177000000Y-73000000D02*
G01*
X158000000Y-73000000D01*
X158000000Y-72000000D01*
X177000000Y-72000000D01*
X177000000Y-73000000D01*
G37*
X177000000Y-73000000D02*
X158000000Y-73000000D01*
X158000000Y-72000000D01*
X177000000Y-72000000D01*
X177000000Y-73000000D01*
G36*
X177000000Y-69000000D02*
G01*
X158000000Y-69000000D01*
X158000000Y-68000000D01*
X177000000Y-68000000D01*
X177000000Y-69000000D01*
G37*
X177000000Y-69000000D02*
X158000000Y-69000000D01*
X158000000Y-68000000D01*
X177000000Y-68000000D01*
X177000000Y-69000000D01*
G36*
X177000000Y-65000000D02*
G01*
X158000000Y-65000000D01*
X158000000Y-64000000D01*
X177000000Y-64000000D01*
X177000000Y-65000000D01*
G37*
X177000000Y-65000000D02*
X158000000Y-65000000D01*
X158000000Y-64000000D01*
X177000000Y-64000000D01*
X177000000Y-65000000D01*
G36*
X177000000Y-61000000D02*
G01*
X158000000Y-61000000D01*
X158000000Y-60000000D01*
X177000000Y-60000000D01*
X177000000Y-61000000D01*
G37*
X177000000Y-61000000D02*
X158000000Y-61000000D01*
X158000000Y-60000000D01*
X177000000Y-60000000D01*
X177000000Y-61000000D01*
G36*
X177000000Y-57000000D02*
G01*
X158000000Y-57000000D01*
X158000000Y-56000000D01*
X177000000Y-56000000D01*
X177000000Y-57000000D01*
G37*
X177000000Y-57000000D02*
X158000000Y-57000000D01*
X158000000Y-56000000D01*
X177000000Y-56000000D01*
X177000000Y-57000000D01*
G36*
X177000000Y-53000000D02*
G01*
X158000000Y-53000000D01*
X158000000Y-52000000D01*
X177000000Y-52000000D01*
X177000000Y-53000000D01*
G37*
X177000000Y-53000000D02*
X158000000Y-53000000D01*
X158000000Y-52000000D01*
X177000000Y-52000000D01*
X177000000Y-53000000D01*
G36*
X179000000Y-51000000D02*
G01*
X160000000Y-51000000D01*
X160000000Y-50000000D01*
X179000000Y-50000000D01*
X179000000Y-51000000D01*
G37*
X179000000Y-51000000D02*
X160000000Y-51000000D01*
X160000000Y-50000000D01*
X179000000Y-50000000D01*
X179000000Y-51000000D01*
G36*
X177000000Y-49000000D02*
G01*
X158000000Y-49000000D01*
X158000000Y-48000000D01*
X177000000Y-48000000D01*
X177000000Y-49000000D01*
G37*
X177000000Y-49000000D02*
X158000000Y-49000000D01*
X158000000Y-48000000D01*
X177000000Y-48000000D01*
X177000000Y-49000000D01*
G36*
X144000000Y-98000000D02*
G01*
X142000000Y-100000000D01*
X139000000Y-100000000D01*
X137000000Y-98000000D01*
X137000000Y-48000000D01*
X144000000Y-48000000D01*
X144000000Y-98000000D01*
G37*
X144000000Y-98000000D02*
X142000000Y-100000000D01*
X139000000Y-100000000D01*
X137000000Y-98000000D01*
X137000000Y-48000000D01*
X144000000Y-48000000D01*
X144000000Y-98000000D01*
G36*
X122000000Y-100000000D02*
G01*
X116000000Y-100000000D01*
X116000000Y-49000000D01*
X122000000Y-49000000D01*
X122000000Y-100000000D01*
G37*
X122000000Y-100000000D02*
X116000000Y-100000000D01*
X116000000Y-49000000D01*
X122000000Y-49000000D01*
X122000000Y-100000000D01*
G36*
X109000000Y-100000000D02*
G01*
X103000000Y-100000000D01*
X103000000Y-49000000D01*
X109000000Y-49000000D01*
X109000000Y-100000000D01*
G37*
X109000000Y-100000000D02*
X103000000Y-100000000D01*
X103000000Y-49000000D01*
X109000000Y-49000000D01*
X109000000Y-100000000D01*
D11*
%TO.C,NT6*%
G36*
X176500000Y-33250000D02*
G01*
X175500000Y-33250000D01*
X175500000Y-32750000D01*
X176500000Y-32750000D01*
X176500000Y-33250000D01*
G37*
%TO.C,NT5*%
G36*
X176500000Y-35750000D02*
G01*
X175500000Y-35750000D01*
X175500000Y-35250000D01*
X176500000Y-35250000D01*
X176500000Y-35750000D01*
G37*
%TO.C,NT4*%
G36*
X149000000Y-33250000D02*
G01*
X148000000Y-33250000D01*
X148000000Y-32750000D01*
X149000000Y-32750000D01*
X149000000Y-33250000D01*
G37*
%TO.C,NT3*%
G36*
X149000000Y-35750000D02*
G01*
X148000000Y-35750000D01*
X148000000Y-35250000D01*
X149000000Y-35250000D01*
X149000000Y-35750000D01*
G37*
%TO.C,NT2*%
G36*
X120000000Y-33250000D02*
G01*
X119000000Y-33250000D01*
X119000000Y-32750000D01*
X120000000Y-32750000D01*
X120000000Y-33250000D01*
G37*
%TO.C,NT1*%
G36*
X120000000Y-36000000D02*
G01*
X119000000Y-36000000D01*
X119000000Y-35500000D01*
X120000000Y-35500000D01*
X120000000Y-36000000D01*
G37*
%TD*%
D12*
%TO.P,U3,8*%
%TO.N,VCC*%
X172620000Y-28000000D03*
%TO.P,U3,4*%
%TO.N,GND*%
X165000000Y-35620000D03*
%TO.P,U3,7*%
%TO.N,Net-(U3-Pad7)*%
X172620000Y-30540000D03*
%TO.P,U3,3*%
%TO.N,/P3*%
X165000000Y-33080000D03*
%TO.P,U3,6*%
%TO.N,Net-(NT6-Pad2)*%
X172620000Y-33080000D03*
%TO.P,U3,2*%
%TO.N,Net-(J6-Pad2)*%
X165000000Y-30540000D03*
%TO.P,U3,5*%
%TO.N,Net-(NT5-Pad2)*%
X172620000Y-35620000D03*
D13*
%TO.P,U3,1*%
%TO.N,Net-(J6-Pad2)*%
X165000000Y-28000000D03*
%TD*%
D14*
%TO.N,Net-(NT6-Pad2)*%
%TO.C,NT6*%
X175500000Y-33000000D03*
%TO.N,GND*%
X176500000Y-33000000D03*
%TD*%
%TO.N,Net-(NT5-Pad2)*%
%TO.C,NT5*%
X175500000Y-35500000D03*
%TO.N,GND*%
X176500000Y-35500000D03*
%TD*%
D15*
%TO.P,J6,4*%
%TO.N,GND*%
X159500000Y-35470000D03*
%TO.P,J6,3*%
%TO.N,/P3*%
X159500000Y-32930000D03*
%TO.P,J6,2*%
%TO.N,Net-(J6-Pad2)*%
X159500000Y-30390000D03*
D16*
%TO.P,J6,1*%
%TO.N,VCC*%
X159500000Y-27850000D03*
%TD*%
%TO.P,C3,2*%
%TO.N,GND*%
%TA.AperFunction,SMDPad,CuDef*%
G36*
G01*
X177043750Y-29512500D02*
X177956250Y-29512500D01*
G75*
G02*
X178200000Y-29756250I0J-243750D01*
G01*
X178200000Y-30243750D01*
G75*
G02*
X177956250Y-30487500I-243750J0D01*
G01*
X177043750Y-30487500D01*
G75*
G02*
X176800000Y-30243750I0J243750D01*
G01*
X176800000Y-29756250D01*
G75*
G02*
X177043750Y-29512500I243750J0D01*
G01*
G37*
%TD.AperFunction*%
%TO.P,C3,1*%
%TO.N,VCC*%
%TA.AperFunction,SMDPad,CuDef*%
G36*
G01*
X177043750Y-27637500D02*
X177956250Y-27637500D01*
G75*
G02*
X178200000Y-27881250I0J-243750D01*
G01*
X178200000Y-28368750D01*
G75*
G02*
X177956250Y-28612500I-243750J0D01*
G01*
X177043750Y-28612500D01*
G75*
G02*
X176800000Y-28368750I0J243750D01*
G01*
X176800000Y-27881250D01*
G75*
G02*
X177043750Y-27637500I243750J0D01*
G01*
G37*
%TD.AperFunction*%
%TD*%
D12*
%TO.P,U2,8*%
%TO.N,VCC*%
X145620000Y-28000000D03*
%TO.P,U2,4*%
%TO.N,GND*%
X138000000Y-35620000D03*
%TO.P,U2,7*%
%TO.N,Net-(U2-Pad7)*%
X145620000Y-30540000D03*
%TO.P,U2,3*%
%TO.N,/P2*%
X138000000Y-33080000D03*
%TO.P,U2,6*%
%TO.N,Net-(NT4-Pad2)*%
X145620000Y-33080000D03*
%TO.P,U2,2*%
%TO.N,Net-(J5-Pad2)*%
X138000000Y-30540000D03*
%TO.P,U2,5*%
%TO.N,Net-(NT3-Pad2)*%
X145620000Y-35620000D03*
D13*
%TO.P,U2,1*%
%TO.N,Net-(J5-Pad2)*%
X138000000Y-28000000D03*
%TD*%
D14*
%TO.N,Net-(NT4-Pad2)*%
%TO.C,NT4*%
X148000000Y-33000000D03*
%TO.N,GND*%
X149000000Y-33000000D03*
%TD*%
%TO.N,Net-(NT3-Pad2)*%
%TO.C,NT3*%
X148000000Y-35500000D03*
%TO.N,GND*%
X149000000Y-35500000D03*
%TD*%
D15*
%TO.P,J5,4*%
%TO.N,GND*%
X132000000Y-35470000D03*
%TO.P,J5,3*%
%TO.N,/P2*%
X132000000Y-32930000D03*
%TO.P,J5,2*%
%TO.N,Net-(J5-Pad2)*%
X132000000Y-30390000D03*
D16*
%TO.P,J5,1*%
%TO.N,VCC*%
X132000000Y-27850000D03*
%TD*%
%TO.P,C2,2*%
%TO.N,GND*%
%TA.AperFunction,SMDPad,CuDef*%
G36*
G01*
X148981250Y-29512500D02*
X149893750Y-29512500D01*
G75*
G02*
X150137500Y-29756250I0J-243750D01*
G01*
X150137500Y-30243750D01*
G75*
G02*
X149893750Y-30487500I-243750J0D01*
G01*
X148981250Y-30487500D01*
G75*
G02*
X148737500Y-30243750I0J243750D01*
G01*
X148737500Y-29756250D01*
G75*
G02*
X148981250Y-29512500I243750J0D01*
G01*
G37*
%TD.AperFunction*%
%TO.P,C2,1*%
%TO.N,VCC*%
%TA.AperFunction,SMDPad,CuDef*%
G36*
G01*
X148981250Y-27637500D02*
X149893750Y-27637500D01*
G75*
G02*
X150137500Y-27881250I0J-243750D01*
G01*
X150137500Y-28368750D01*
G75*
G02*
X149893750Y-28612500I-243750J0D01*
G01*
X148981250Y-28612500D01*
G75*
G02*
X148737500Y-28368750I0J243750D01*
G01*
X148737500Y-27881250D01*
G75*
G02*
X148981250Y-27637500I243750J0D01*
G01*
G37*
%TD.AperFunction*%
%TD*%
D14*
%TO.N,Net-(NT2-Pad2)*%
%TO.C,NT2*%
X119000000Y-33000000D03*
%TO.N,GND*%
X120000000Y-33000000D03*
%TD*%
%TO.N,Net-(NT1-Pad2)*%
%TO.C,NT1*%
X119000000Y-35750000D03*
%TO.N,GND*%
X120000000Y-35750000D03*
%TD*%
D15*
%TO.P,J4,4*%
%TO.N,GND*%
X103000000Y-35540000D03*
%TO.P,J4,3*%
%TO.N,/P*%
X103000000Y-33000000D03*
%TO.P,J4,2*%
%TO.N,Net-(J4-Pad2)*%
X103000000Y-30460000D03*
D16*
%TO.P,J4,1*%
%TO.N,VCC*%
X103000000Y-27920000D03*
%TD*%
D12*
%TO.P,U1,8*%
%TO.N,VCC*%
X116620000Y-28000000D03*
%TO.P,U1,4*%
%TO.N,GND*%
X109000000Y-35620000D03*
%TO.P,U1,7*%
%TO.N,Net-(U1-Pad7)*%
X116620000Y-30540000D03*
%TO.P,U1,3*%
%TO.N,/P*%
X109000000Y-33080000D03*
%TO.P,U1,6*%
%TO.N,Net-(NT2-Pad2)*%
X116620000Y-33080000D03*
%TO.P,U1,2*%
%TO.N,Net-(J4-Pad2)*%
X109000000Y-30540000D03*
%TO.P,U1,5*%
%TO.N,Net-(NT1-Pad2)*%
X116620000Y-35620000D03*
D13*
%TO.P,U1,1*%
%TO.N,Net-(J4-Pad2)*%
X109000000Y-28000000D03*
%TD*%
%TO.P,C1,2*%
%TO.N,GND*%
%TA.AperFunction,SMDPad,CuDef*%
G36*
G01*
X119543750Y-30512500D02*
X120456250Y-30512500D01*
G75*
G02*
X120700000Y-30756250I0J-243750D01*
G01*
X120700000Y-31243750D01*
G75*
G02*
X120456250Y-31487500I-243750J0D01*
G01*
X119543750Y-31487500D01*
G75*
G02*
X119300000Y-31243750I0J243750D01*
G01*
X119300000Y-30756250D01*
G75*
G02*
X119543750Y-30512500I243750J0D01*
G01*
G37*
%TD.AperFunction*%
%TO.P,C1,1*%
%TO.N,VCC*%
%TA.AperFunction,SMDPad,CuDef*%
G36*
G01*
X119543750Y-28637500D02*
X120456250Y-28637500D01*
G75*
G02*
X120700000Y-28881250I0J-243750D01*
G01*
X120700000Y-29368750D01*
G75*
G02*
X120456250Y-29612500I-243750J0D01*
G01*
X119543750Y-29612500D01*
G75*
G02*
X119300000Y-29368750I0J243750D01*
G01*
X119300000Y-28881250D01*
G75*
G02*
X119543750Y-28637500I243750J0D01*
G01*
G37*
%TD.AperFunction*%
%TD*%
D15*
%TO.P,J3,2*%
%TO.N,GND*%
X170000000Y-43000000D03*
D16*
%TO.P,J3,1*%
%TO.N,/P3*%
X167460000Y-43000000D03*
%TD*%
D15*
%TO.P,J2,2*%
%TO.N,GND*%
X140500000Y-45540000D03*
D16*
%TO.P,J2,1*%
%TO.N,/P2*%
X140500000Y-43000000D03*
%TD*%
D15*
%TO.P,J1,2*%
%TO.N,GND*%
X113540000Y-43000000D03*
D16*
%TO.P,J1,1*%
%TO.N,/P*%
X111000000Y-43000000D03*
%TD*%
D17*
%TO.N,GND*%
X120000000Y-32000000D03*
X113500000Y-36000000D03*
X149000000Y-31500000D03*
X176500000Y-31500000D03*
X170000000Y-36000000D03*
%TD*%
D18*
%TO.N,/P*%
X106000000Y-45000000D02*
X106000000Y-53000000D01*
X108000000Y-43000000D02*
X106000000Y-45000000D01*
X111000000Y-43000000D02*
X108000000Y-43000000D01*
D19*
X111000000Y-43000000D02*
X111000000Y-34000000D01*
X111000000Y-34000000D02*
X110000000Y-33000000D01*
X109920000Y-33080000D02*
X109000000Y-33080000D01*
X110000000Y-33000000D02*
X109920000Y-33080000D01*
X103080000Y-33080000D02*
X103000000Y-33000000D01*
X109000000Y-33080000D02*
X103080000Y-33080000D01*
D20*
%TO.N,/P2*%
X149000000Y-46000000D02*
X149000000Y-100000000D01*
X149000000Y-100000000D02*
X144000000Y-105000000D01*
X144000000Y-105000000D02*
X137000000Y-105000000D01*
X137000000Y-105000000D02*
X132000000Y-100000000D01*
X132000000Y-100000000D02*
X132000000Y-46000000D01*
D19*
X149000000Y-44000000D02*
X149000000Y-46000000D01*
X133000000Y-43000000D02*
X148000000Y-43000000D01*
X132000000Y-46000000D02*
X132000000Y-44000000D01*
X132000000Y-44000000D02*
X133000000Y-43000000D01*
X148000000Y-43000000D02*
X149000000Y-44000000D01*
X140500000Y-43000000D02*
X140500000Y-34500000D01*
X139080000Y-33080000D02*
X138000000Y-33080000D01*
X140500000Y-34500000D02*
X139080000Y-33080000D01*
X132150000Y-33080000D02*
X132000000Y-32930000D01*
X138000000Y-33080000D02*
X132150000Y-33080000D01*
%TO.N,/P3*%
X158500000Y-45500000D02*
X161000000Y-43000000D01*
X161000000Y-43000000D02*
X167460000Y-43000000D01*
X158500000Y-100500000D02*
X158500000Y-45500000D01*
X167460000Y-43000000D02*
X167460000Y-34460000D01*
X166080000Y-33080000D02*
X165000000Y-33080000D01*
X167460000Y-34460000D02*
X166080000Y-33080000D01*
X159650000Y-33080000D02*
X159500000Y-32930000D01*
X165000000Y-33080000D02*
X159650000Y-33080000D01*
D18*
%TO.N,GND*%
X113540000Y-43000000D02*
X117000000Y-43000000D01*
X117000000Y-43000000D02*
X119000000Y-45000000D01*
X119000000Y-45000000D02*
X119000000Y-51000000D01*
X140500000Y-49500000D02*
X140000000Y-50000000D01*
D19*
X140500000Y-45540000D02*
X140500000Y-49500000D01*
X176000000Y-43000000D02*
X170000000Y-43000000D01*
X178500000Y-45500000D02*
X176000000Y-43000000D01*
X178500000Y-98500000D02*
X178500000Y-45500000D01*
X113540000Y-43000000D02*
X113540000Y-38700000D01*
D21*
X120000000Y-35750000D02*
X120000000Y-32000000D01*
X120000000Y-32000000D02*
X120000000Y-31000000D01*
D19*
X113540000Y-36040000D02*
X113500000Y-36000000D01*
X113540000Y-38700000D02*
X113540000Y-36040000D01*
D21*
X149000000Y-35500000D02*
X149000000Y-33000000D01*
X149000000Y-30437500D02*
X149437500Y-30000000D01*
X149000000Y-33000000D02*
X149000000Y-31500000D01*
X149000000Y-31500000D02*
X149000000Y-30437500D01*
X176500000Y-35500000D02*
X176500000Y-33000000D01*
X176500000Y-31000000D02*
X177500000Y-30000000D01*
X176500000Y-33000000D02*
X176500000Y-31000000D01*
X176500000Y-31000000D02*
X176500000Y-31500000D01*
D19*
X170000000Y-43000000D02*
X170000000Y-36000000D01*
X132150000Y-35620000D02*
X132000000Y-35470000D01*
X138000000Y-35620000D02*
X132150000Y-35620000D01*
%TO.N,VCC*%
X103000000Y-27000000D02*
X106000000Y-24000000D01*
X103000000Y-27920000D02*
X103000000Y-27000000D01*
X116620000Y-24620000D02*
X116000000Y-24000000D01*
X116620000Y-28000000D02*
X116620000Y-24620000D01*
X116000000Y-24000000D02*
X117000000Y-24000000D01*
X106000000Y-24000000D02*
X116000000Y-24000000D01*
X118875000Y-28000000D02*
X120000000Y-29125000D01*
X116620000Y-28000000D02*
X118875000Y-28000000D01*
X145745000Y-28125000D02*
X145620000Y-28000000D01*
X149437500Y-28125000D02*
X145745000Y-28125000D01*
X132000000Y-27850000D02*
X132000000Y-24000000D01*
X117000000Y-24000000D02*
X133000000Y-24000000D01*
X145620000Y-28000000D02*
X145620000Y-24120000D01*
X145620000Y-24120000D02*
X145500000Y-24000000D01*
X133000000Y-24000000D02*
X145500000Y-24000000D01*
X172620000Y-25120000D02*
X172620000Y-28000000D01*
X171500000Y-24000000D02*
X172620000Y-25120000D01*
X172745000Y-28125000D02*
X172620000Y-28000000D01*
X177500000Y-28125000D02*
X172745000Y-28125000D01*
X160000000Y-24000000D02*
X171500000Y-24000000D01*
X159500000Y-27850000D02*
X159500000Y-24500000D01*
X145500000Y-24000000D02*
X160000000Y-24000000D01*
%TO.N,Net-(J4-Pad2)*%
X103080000Y-30540000D02*
X103000000Y-30460000D01*
X109000000Y-30540000D02*
X103080000Y-30540000D01*
%TO.N,Net-(NT1-Pad2)*%
X116750000Y-35750000D02*
X116620000Y-35620000D01*
X119000000Y-35750000D02*
X116750000Y-35750000D01*
%TO.N,Net-(NT2-Pad2)*%
X116700000Y-33000000D02*
X116620000Y-33080000D01*
X119000000Y-33000000D02*
X116700000Y-33000000D01*
%TO.N,Net-(J5-Pad2)*%
X132150000Y-30540000D02*
X132000000Y-30390000D01*
X138000000Y-30540000D02*
X132150000Y-30540000D01*
%TO.N,Net-(NT3-Pad2)*%
X147880000Y-35620000D02*
X148000000Y-35500000D01*
X145620000Y-35620000D02*
X147880000Y-35620000D01*
%TO.N,Net-(NT4-Pad2)*%
X147920000Y-33080000D02*
X148000000Y-33000000D01*
X145620000Y-33080000D02*
X147920000Y-33080000D01*
%TO.N,Net-(J6-Pad2)*%
X159650000Y-30540000D02*
X159500000Y-30390000D01*
X165000000Y-30540000D02*
X159650000Y-30540000D01*
%TO.N,Net-(NT5-Pad2)*%
X175380000Y-35620000D02*
X175500000Y-35500000D01*
X172620000Y-35620000D02*
X175380000Y-35620000D01*
%TO.N,Net-(NT6-Pad2)*%
X175420000Y-33080000D02*
X175500000Y-33000000D01*
X172620000Y-33080000D02*
X175420000Y-33080000D01*
%TD*%
M02*
