%TF.GenerationSoftware,KiCad,Pcbnew,5.1.6-c6e7f7d~86~ubuntu16.04.1*%
%TF.CreationDate,2020-05-16T14:02:59+09:00*%
%TF.ProjectId,output.soil_monitor,6f757470-7574-42e7-936f-696c5f6d6f6e,rev?*%
%TF.SameCoordinates,Original*%
%TF.FileFunction,Soldermask,Top*%
%TF.FilePolarity,Negative*%
%FSLAX46Y46*%
G04 Gerber Fmt 4.6, Leading zero omitted, Abs format (unit mm)*
G04 Created by KiCad (PCBNEW 5.1.6-c6e7f7d~86~ubuntu16.04.1) date 2020-05-16 14:02:59*
%MOMM*%
%LPD*%
G01*
G04 APERTURE LIST*
%ADD10C,0.600000*%
%ADD11O,1.700000X1.700000*%
%ADD12R,1.700000X1.700000*%
%ADD13O,1.800000X1.800000*%
%ADD14R,1.800000X1.800000*%
%ADD15C,0.900000*%
G04 APERTURE END LIST*
D10*
%TO.C,REF\u002A\u002A*%
X177500000Y-40500000D03*
%TD*%
%TO.C,REF\u002A\u002A*%
X176000000Y-40500000D03*
%TD*%
%TO.C,REF\u002A\u002A*%
X173000000Y-40500000D03*
%TD*%
%TO.C,REF\u002A\u002A*%
X174500000Y-40500000D03*
%TD*%
%TO.C,REF\u002A\u002A*%
X179000000Y-40500000D03*
%TD*%
%TO.C,REF\u002A\u002A*%
X163000000Y-40500000D03*
%TD*%
%TO.C,REF\u002A\u002A*%
X161500000Y-40500000D03*
%TD*%
%TO.C,REF\u002A\u002A*%
X158500000Y-40500000D03*
%TD*%
%TO.C,REF\u002A\u002A*%
X160000000Y-40500000D03*
%TD*%
%TO.C,REF\u002A\u002A*%
X164500000Y-40500000D03*
%TD*%
%TO.C,REF\u002A\u002A*%
X149000000Y-40500000D03*
%TD*%
%TO.C,REF\u002A\u002A*%
X147500000Y-40500000D03*
%TD*%
%TO.C,REF\u002A\u002A*%
X144500000Y-40500000D03*
%TD*%
%TO.C,REF\u002A\u002A*%
X146000000Y-40500000D03*
%TD*%
%TO.C,REF\u002A\u002A*%
X150500000Y-40500000D03*
%TD*%
%TO.C,REF\u002A\u002A*%
X134500000Y-40500000D03*
%TD*%
%TO.C,REF\u002A\u002A*%
X133000000Y-40500000D03*
%TD*%
%TO.C,REF\u002A\u002A*%
X130000000Y-40500000D03*
%TD*%
%TO.C,REF\u002A\u002A*%
X131500000Y-40500000D03*
%TD*%
%TO.C,REF\u002A\u002A*%
X136000000Y-40500000D03*
%TD*%
%TO.C,REF\u002A\u002A*%
X122000000Y-40500000D03*
%TD*%
%TO.C,REF\u002A\u002A*%
X120500000Y-40500000D03*
%TD*%
%TO.C,REF\u002A\u002A*%
X117500000Y-40500000D03*
%TD*%
%TO.C,REF\u002A\u002A*%
X119000000Y-40500000D03*
%TD*%
%TO.C,REF\u002A\u002A*%
X123500000Y-40500000D03*
%TD*%
%TO.C,REF\u002A\u002A*%
X107500000Y-40500000D03*
%TD*%
%TO.C,REF\u002A\u002A*%
X106000000Y-40500000D03*
%TD*%
%TO.C,REF\u002A\u002A*%
X104500000Y-40500000D03*
%TD*%
%TO.C,REF\u002A\u002A*%
X103000000Y-40500000D03*
%TD*%
%TO.C,REF\u002A\u002A*%
X101500000Y-40500000D03*
%TD*%
D11*
%TO.C,U3*%
X172620000Y-28000000D03*
X165000000Y-35620000D03*
X172620000Y-30540000D03*
X165000000Y-33080000D03*
X172620000Y-33080000D03*
X165000000Y-30540000D03*
X172620000Y-35620000D03*
D12*
X165000000Y-28000000D03*
%TD*%
D13*
%TO.C,J6*%
X159500000Y-35470000D03*
X159500000Y-32930000D03*
X159500000Y-30390000D03*
D14*
X159500000Y-27850000D03*
%TD*%
%TO.C,C3*%
G36*
G01*
X177018750Y-29462500D02*
X177981250Y-29462500D01*
G75*
G02*
X178250000Y-29731250I0J-268750D01*
G01*
X178250000Y-30268750D01*
G75*
G02*
X177981250Y-30537500I-268750J0D01*
G01*
X177018750Y-30537500D01*
G75*
G02*
X176750000Y-30268750I0J268750D01*
G01*
X176750000Y-29731250D01*
G75*
G02*
X177018750Y-29462500I268750J0D01*
G01*
G37*
G36*
G01*
X177018750Y-27587500D02*
X177981250Y-27587500D01*
G75*
G02*
X178250000Y-27856250I0J-268750D01*
G01*
X178250000Y-28393750D01*
G75*
G02*
X177981250Y-28662500I-268750J0D01*
G01*
X177018750Y-28662500D01*
G75*
G02*
X176750000Y-28393750I0J268750D01*
G01*
X176750000Y-27856250D01*
G75*
G02*
X177018750Y-27587500I268750J0D01*
G01*
G37*
%TD*%
D11*
%TO.C,U2*%
X145620000Y-28000000D03*
X138000000Y-35620000D03*
X145620000Y-30540000D03*
X138000000Y-33080000D03*
X145620000Y-33080000D03*
X138000000Y-30540000D03*
X145620000Y-35620000D03*
D12*
X138000000Y-28000000D03*
%TD*%
D13*
%TO.C,J5*%
X132000000Y-35470000D03*
X132000000Y-32930000D03*
X132000000Y-30390000D03*
D14*
X132000000Y-27850000D03*
%TD*%
%TO.C,C2*%
G36*
G01*
X148956250Y-29462500D02*
X149918750Y-29462500D01*
G75*
G02*
X150187500Y-29731250I0J-268750D01*
G01*
X150187500Y-30268750D01*
G75*
G02*
X149918750Y-30537500I-268750J0D01*
G01*
X148956250Y-30537500D01*
G75*
G02*
X148687500Y-30268750I0J268750D01*
G01*
X148687500Y-29731250D01*
G75*
G02*
X148956250Y-29462500I268750J0D01*
G01*
G37*
G36*
G01*
X148956250Y-27587500D02*
X149918750Y-27587500D01*
G75*
G02*
X150187500Y-27856250I0J-268750D01*
G01*
X150187500Y-28393750D01*
G75*
G02*
X149918750Y-28662500I-268750J0D01*
G01*
X148956250Y-28662500D01*
G75*
G02*
X148687500Y-28393750I0J268750D01*
G01*
X148687500Y-27856250D01*
G75*
G02*
X148956250Y-27587500I268750J0D01*
G01*
G37*
%TD*%
D13*
%TO.C,J4*%
X103000000Y-35540000D03*
X103000000Y-33000000D03*
X103000000Y-30460000D03*
D14*
X103000000Y-27920000D03*
%TD*%
D11*
%TO.C,U1*%
X116620000Y-28000000D03*
X109000000Y-35620000D03*
X116620000Y-30540000D03*
X109000000Y-33080000D03*
X116620000Y-33080000D03*
X109000000Y-30540000D03*
X116620000Y-35620000D03*
D12*
X109000000Y-28000000D03*
%TD*%
%TO.C,C1*%
G36*
G01*
X119518750Y-30462500D02*
X120481250Y-30462500D01*
G75*
G02*
X120750000Y-30731250I0J-268750D01*
G01*
X120750000Y-31268750D01*
G75*
G02*
X120481250Y-31537500I-268750J0D01*
G01*
X119518750Y-31537500D01*
G75*
G02*
X119250000Y-31268750I0J268750D01*
G01*
X119250000Y-30731250D01*
G75*
G02*
X119518750Y-30462500I268750J0D01*
G01*
G37*
G36*
G01*
X119518750Y-28587500D02*
X120481250Y-28587500D01*
G75*
G02*
X120750000Y-28856250I0J-268750D01*
G01*
X120750000Y-29393750D01*
G75*
G02*
X120481250Y-29662500I-268750J0D01*
G01*
X119518750Y-29662500D01*
G75*
G02*
X119250000Y-29393750I0J268750D01*
G01*
X119250000Y-28856250D01*
G75*
G02*
X119518750Y-28587500I268750J0D01*
G01*
G37*
%TD*%
D13*
%TO.C,J3*%
X170000000Y-43000000D03*
D14*
X167460000Y-43000000D03*
%TD*%
D13*
%TO.C,J2*%
X140500000Y-45540000D03*
D14*
X140500000Y-43000000D03*
%TD*%
D13*
%TO.C,J1*%
X113540000Y-43000000D03*
D14*
X111000000Y-43000000D03*
%TD*%
D15*
%TO.C,*%
X152750000Y-60187800D03*
X152750000Y-58729292D03*
X152750000Y-57270784D03*
X152750000Y-55812276D03*
%TD*%
%TO.C,*%
X156250000Y-55812275D03*
X156250000Y-57270783D03*
X156250000Y-58729291D03*
X156250000Y-60187799D03*
%TD*%
%TO.C,*%
X124750000Y-60187800D03*
X124750000Y-58729292D03*
X124750000Y-57270784D03*
X124750000Y-55812276D03*
%TD*%
%TO.C,*%
X128250000Y-55812275D03*
X128250000Y-57270783D03*
X128250000Y-58729291D03*
X128250000Y-60187799D03*
%TD*%
%TO.C,*%
X152750000Y-97187751D03*
X152750000Y-95729238D03*
X152750000Y-94270725D03*
X152750000Y-92812212D03*
%TD*%
%TO.C,*%
X156250000Y-92812209D03*
X156250000Y-94270722D03*
X156250000Y-95729235D03*
X156250000Y-97187748D03*
%TD*%
%TO.C,*%
X124750000Y-97187751D03*
X124750000Y-95729238D03*
X124750000Y-94270725D03*
X124750000Y-92812212D03*
%TD*%
%TO.C,*%
X128250000Y-92812209D03*
X128250000Y-94270722D03*
X128250000Y-95729235D03*
X128250000Y-97187748D03*
%TD*%
M02*
