M48
; DRILL file {KiCad 5.1.6-c6e7f7d~86~ubuntu16.04.1} date Sat May 16 14:03:02 2020
; FORMAT={-:-/ absolute / inch / decimal}
; #@! TF.CreationDate,2020-05-16T14:03:02+09:00
; #@! TF.GenerationSoftware,Kicad,Pcbnew,5.1.6-c6e7f7d~86~ubuntu16.04.1
; #@! TF.FileFunction,NonPlated,1,2,NPTH
FMAT,2
INCH
T1C0.0197
T2C0.0315
%
G90
G05
T1
X5.8661Y-1.5945
X4.1732Y-1.5945
X6.8701Y-1.5945
X4.685Y-1.5945
X5.689Y-1.5945
X4.8031Y-1.5945
X7.0472Y-1.5945
X6.3583Y-1.5945
X5.3543Y-1.5945
X5.748Y-1.5945
X4.7441Y-1.5945
X6.9882Y-1.5945
X6.811Y-1.5945
X6.9291Y-1.5945
X5.2362Y-1.5945
X6.2992Y-1.5945
X4.8622Y-1.5945
X5.9252Y-1.5945
X4.2323Y-1.5945
X5.1181Y-1.5945
X4.1142Y-1.5945
X5.8071Y-1.5945
X4.626Y-1.5945
X6.4173Y-1.5945
X5.2953Y-1.5945
X3.9961Y-1.5945
X6.2402Y-1.5945
X5.1772Y-1.5945
X4.0551Y-1.5945
X6.4764Y-1.5945
T2
X5.0492Y-2.1973
X5.0492Y-2.2548
X5.0492Y-2.3122
X5.0492Y-2.3696
X4.9114Y-2.1973
X4.9114Y-2.2548
X4.9114Y-2.3122
X4.9114Y-2.3696
X6.0138Y-2.1973
X6.0138Y-2.2548
X6.0138Y-2.3122
X6.0138Y-2.3696
X4.9114Y-3.654
X4.9114Y-3.7114
X4.9114Y-3.7689
X4.9114Y-3.8263
X5.0492Y-3.654
X5.0492Y-3.7114
X5.0492Y-3.7689
X5.0492Y-3.8263
X6.0138Y-3.654
X6.0138Y-3.7114
X6.0138Y-3.7689
X6.0138Y-3.8263
X6.1516Y-2.1973
X6.1516Y-2.2548
X6.1516Y-2.3122
X6.1516Y-2.3696
X6.1516Y-3.654
X6.1516Y-3.7114
X6.1516Y-3.7689
X6.1516Y-3.8263
T0
M30
