M48
; DRILL file {KiCad 5.1.6-c6e7f7d~86~ubuntu16.04.1} date Sat May 16 14:03:02 2020
; FORMAT={-:-/ absolute / inch / decimal}
; #@! TF.CreationDate,2020-05-16T14:03:02+09:00
; #@! TF.GenerationSoftware,Kicad,Pcbnew,5.1.6-c6e7f7d~86~ubuntu16.04.1
; #@! TF.FileFunction,Plated,1,2,PTH
FMAT,2
INCH
T1C0.0157
T2C0.0315
T3C0.0394
%
G90
G05
T1
X4.4685Y-1.4173
X4.7244Y-1.2598
X5.8661Y-1.2402
X6.6929Y-1.4173
X6.9488Y-1.2402
T2
X5.4331Y-1.1024
X5.4331Y-1.2024
X5.4331Y-1.3024
X5.4331Y-1.4024
X5.7331Y-1.1024
X5.7331Y-1.2024
X5.7331Y-1.3024
X5.7331Y-1.4024
X6.4961Y-1.1024
X6.4961Y-1.2024
X6.4961Y-1.3024
X6.4961Y-1.4024
X6.7961Y-1.1024
X6.7961Y-1.2024
X6.7961Y-1.3024
X6.7961Y-1.4024
X4.2913Y-1.1024
X4.2913Y-1.2024
X4.2913Y-1.3024
X4.2913Y-1.4024
X4.5913Y-1.1024
X4.5913Y-1.2024
X4.5913Y-1.3024
X4.5913Y-1.4024
T3
X4.3701Y-1.6929
X4.4701Y-1.6929
X5.5315Y-1.6929
X5.5315Y-1.7929
X6.2795Y-1.0965
X6.2795Y-1.1965
X6.2795Y-1.2965
X6.2795Y-1.3965
X5.1969Y-1.0965
X5.1969Y-1.1965
X5.1969Y-1.2965
X5.1969Y-1.3965
X4.0551Y-1.0992
X4.0551Y-1.1992
X4.0551Y-1.2992
X4.0551Y-1.3992
X6.5929Y-1.6929
X6.6929Y-1.6929
T0
M30
