%TF.GenerationSoftware,KiCad,Pcbnew,5.1.6-c6e7f7d~86~ubuntu16.04.1*%
%TF.CreationDate,2020-05-16T14:02:59+09:00*%
%TF.ProjectId,output.soil_monitor,6f757470-7574-42e7-936f-696c5f6d6f6e,rev?*%
%TF.SameCoordinates,Original*%
%TF.FileFunction,Copper,L2,Bot*%
%TF.FilePolarity,Positive*%
%FSLAX46Y46*%
G04 Gerber Fmt 4.6, Leading zero omitted, Abs format (unit mm)*
G04 Created by KiCad (PCBNEW 5.1.6-c6e7f7d~86~ubuntu16.04.1) date 2020-05-16 14:02:59*
%MOMM*%
%LPD*%
G01*
G04 APERTURE LIST*
%TA.AperFunction,ComponentPad*%
%ADD10O,1.600000X1.600000*%
%TD*%
%TA.AperFunction,ComponentPad*%
%ADD11R,1.600000X1.600000*%
%TD*%
%TA.AperFunction,ComponentPad*%
%ADD12O,1.700000X1.700000*%
%TD*%
%TA.AperFunction,ComponentPad*%
%ADD13R,1.700000X1.700000*%
%TD*%
%TA.AperFunction,ViaPad*%
%ADD14C,0.800000*%
%TD*%
%TA.AperFunction,Conductor*%
%ADD15C,1.000000*%
%TD*%
%TA.AperFunction,Conductor*%
%ADD16C,2.000000*%
%TD*%
G04 APERTURE END LIST*
D10*
%TO.P,U3,8*%
%TO.N,VCC*%
X172620000Y-28000000D03*
%TO.P,U3,4*%
%TO.N,GND*%
X165000000Y-35620000D03*
%TO.P,U3,7*%
%TO.N,Net-(U3-Pad7)*%
X172620000Y-30540000D03*
%TO.P,U3,3*%
%TO.N,/P3*%
X165000000Y-33080000D03*
%TO.P,U3,6*%
%TO.N,Net-(NT6-Pad2)*%
X172620000Y-33080000D03*
%TO.P,U3,2*%
%TO.N,Net-(J6-Pad2)*%
X165000000Y-30540000D03*
%TO.P,U3,5*%
%TO.N,Net-(NT5-Pad2)*%
X172620000Y-35620000D03*
D11*
%TO.P,U3,1*%
%TO.N,Net-(J6-Pad2)*%
X165000000Y-28000000D03*
%TD*%
D12*
%TO.P,J6,4*%
%TO.N,GND*%
X159500000Y-35470000D03*
%TO.P,J6,3*%
%TO.N,/P3*%
X159500000Y-32930000D03*
%TO.P,J6,2*%
%TO.N,Net-(J6-Pad2)*%
X159500000Y-30390000D03*
D13*
%TO.P,J6,1*%
%TO.N,VCC*%
X159500000Y-27850000D03*
%TD*%
D10*
%TO.P,U2,8*%
%TO.N,VCC*%
X145620000Y-28000000D03*
%TO.P,U2,4*%
%TO.N,GND*%
X138000000Y-35620000D03*
%TO.P,U2,7*%
%TO.N,Net-(U2-Pad7)*%
X145620000Y-30540000D03*
%TO.P,U2,3*%
%TO.N,/P2*%
X138000000Y-33080000D03*
%TO.P,U2,6*%
%TO.N,Net-(NT4-Pad2)*%
X145620000Y-33080000D03*
%TO.P,U2,2*%
%TO.N,Net-(J5-Pad2)*%
X138000000Y-30540000D03*
%TO.P,U2,5*%
%TO.N,Net-(NT3-Pad2)*%
X145620000Y-35620000D03*
D11*
%TO.P,U2,1*%
%TO.N,Net-(J5-Pad2)*%
X138000000Y-28000000D03*
%TD*%
D12*
%TO.P,J5,4*%
%TO.N,GND*%
X132000000Y-35470000D03*
%TO.P,J5,3*%
%TO.N,/P2*%
X132000000Y-32930000D03*
%TO.P,J5,2*%
%TO.N,Net-(J5-Pad2)*%
X132000000Y-30390000D03*
D13*
%TO.P,J5,1*%
%TO.N,VCC*%
X132000000Y-27850000D03*
%TD*%
D12*
%TO.P,J4,4*%
%TO.N,GND*%
X103000000Y-35540000D03*
%TO.P,J4,3*%
%TO.N,/P*%
X103000000Y-33000000D03*
%TO.P,J4,2*%
%TO.N,Net-(J4-Pad2)*%
X103000000Y-30460000D03*
D13*
%TO.P,J4,1*%
%TO.N,VCC*%
X103000000Y-27920000D03*
%TD*%
D10*
%TO.P,U1,8*%
%TO.N,VCC*%
X116620000Y-28000000D03*
%TO.P,U1,4*%
%TO.N,GND*%
X109000000Y-35620000D03*
%TO.P,U1,7*%
%TO.N,Net-(U1-Pad7)*%
X116620000Y-30540000D03*
%TO.P,U1,3*%
%TO.N,/P*%
X109000000Y-33080000D03*
%TO.P,U1,6*%
%TO.N,Net-(NT2-Pad2)*%
X116620000Y-33080000D03*
%TO.P,U1,2*%
%TO.N,Net-(J4-Pad2)*%
X109000000Y-30540000D03*
%TO.P,U1,5*%
%TO.N,Net-(NT1-Pad2)*%
X116620000Y-35620000D03*
D11*
%TO.P,U1,1*%
%TO.N,Net-(J4-Pad2)*%
X109000000Y-28000000D03*
%TD*%
D12*
%TO.P,J3,2*%
%TO.N,GND*%
X170000000Y-43000000D03*
D13*
%TO.P,J3,1*%
%TO.N,/P3*%
X167460000Y-43000000D03*
%TD*%
D12*
%TO.P,J2,2*%
%TO.N,GND*%
X140500000Y-45540000D03*
D13*
%TO.P,J2,1*%
%TO.N,/P2*%
X140500000Y-43000000D03*
%TD*%
D12*
%TO.P,J1,2*%
%TO.N,GND*%
X113540000Y-43000000D03*
D13*
%TO.P,J1,1*%
%TO.N,/P*%
X111000000Y-43000000D03*
%TD*%
D14*
%TO.N,GND*%
X120000000Y-32000000D03*
X113500000Y-36000000D03*
X149000000Y-31500000D03*
X176500000Y-31500000D03*
X170000000Y-36000000D03*
%TD*%
D15*
%TO.N,GND*%
X140500000Y-45540000D02*
X138540000Y-45540000D01*
X138000000Y-45000000D02*
X138000000Y-35620000D01*
X138540000Y-45540000D02*
X138000000Y-45000000D01*
D16*
X108920000Y-35540000D02*
X109000000Y-35620000D01*
X103000000Y-35540000D02*
X108920000Y-35540000D01*
X113120000Y-35620000D02*
X113500000Y-36000000D01*
X109000000Y-35620000D02*
X113120000Y-35620000D01*
X176500000Y-28919998D02*
X176500000Y-31500000D01*
X171580002Y-24000000D02*
X176500000Y-28919998D01*
X149000000Y-31500000D02*
X149000000Y-24000000D01*
X149000000Y-24000000D02*
X156500000Y-24000000D01*
X135380000Y-24380000D02*
X135000000Y-24000000D01*
X135380000Y-35620000D02*
X135380000Y-24380000D01*
X138000000Y-35620000D02*
X135380000Y-35620000D01*
X135000000Y-24000000D02*
X149000000Y-24000000D01*
X162880000Y-24380000D02*
X162500000Y-24000000D01*
X162880000Y-35620000D02*
X162880000Y-24380000D01*
X165000000Y-35620000D02*
X162880000Y-35620000D01*
X162500000Y-24000000D02*
X171580002Y-24000000D01*
X156500000Y-24000000D02*
X162500000Y-24000000D01*
X165000000Y-35620000D02*
X169620000Y-35620000D01*
X169620000Y-35620000D02*
X170000000Y-36000000D01*
X120000000Y-28419998D02*
X120000000Y-24000000D01*
X120000000Y-32000000D02*
X120000000Y-28419998D01*
X120000000Y-24000000D02*
X135000000Y-24000000D01*
X115500000Y-24000000D02*
X120000000Y-24000000D01*
X113500000Y-26000000D02*
X115500000Y-24000000D01*
X113500000Y-36000000D02*
X113500000Y-26000000D01*
X162730000Y-35470000D02*
X162880000Y-35620000D01*
X159500000Y-35470000D02*
X162730000Y-35470000D01*
D15*
%TO.N,Net-(J4-Pad2)*%
X109000000Y-28000000D02*
X109000000Y-30540000D01*
%TO.N,Net-(J5-Pad2)*%
X138000000Y-30540000D02*
X138000000Y-28000000D01*
%TO.N,Net-(J6-Pad2)*%
X165000000Y-30540000D02*
X165000000Y-28000000D01*
%TD*%
M02*
